<?xml version="1.0" encoding="UTF-8" standalone="no"?>
<svg
   width="1100"
   height="780"
   xml:space="preserve"
   overflow="hidden"
   version="1.1"
   id="svg3"
   sodipodi:docname="logo.svg"
   inkscape:version="1.1.2 (b8e25be833, 2022-02-05)"
   inkscape:export-filename="logo.png"
   inkscape:export-xdpi="31.135136"
   inkscape:export-ydpi="31.135136"
   xmlns:inkscape="http://www.inkscape.org/namespaces/inkscape"
   xmlns:sodipodi="http://sodipodi.sourceforge.net/DTD/sodipodi-0.dtd"
   xmlns="http://www.w3.org/2000/svg"
   xmlns:svg="http://www.w3.org/2000/svg"><sodipodi:namedview
     id="namedview3"
     pagecolor="#ffffff"
     bordercolor="#000000"
     borderopacity="0.25"
     inkscape:showpageshadow="2"
     inkscape:pageopacity="0.0"
     inkscape:pagecheckerboard="0"
     inkscape:deskcolor="#d1d1d1"
     inkscape:zoom="0.46229206"
     inkscape:cx="638.12474"
     inkscape:cy="241.18952"
     inkscape:window-width="1920"
     inkscape:window-height="991"
     inkscape:window-x="-9"
     inkscape:window-y="-9"
     inkscape:window-maximized="1"
     inkscape:current-layer="svg3"
     inkscape:pageshadow="2"
     showgrid="false" /><defs
     id="defs1"><inkscape:path-effect
       effect="bspline"
       id="path-effect19946"
       is_visible="true"
       lpeversion="1"
       weight="33.333333"
       steps="2"
       helper_size="0"
       apply_no_weight="true"
       apply_with_weight="true"
       only_selected="false" /><rect
       x="110.31987"
       y="-162.23511"
       width="458.58456"
       height="497.52097"
       id="rect16399" /><inkscape:path-effect
       effect="bspline"
       id="path-effect8881"
       is_visible="true"
       lpeversion="1"
       weight="33.333333"
       steps="2"
       helper_size="0"
       apply_no_weight="true"
       apply_with_weight="true"
       only_selected="false" /><rect
       x="305.00198"
       y="-90.851662"
       width="659.7561"
       height="614.33026"
       id="rect2331" /></defs><text
     fill="#49565f"
     font-family="Arial, Arial_MSFontService, sans-serif"
     font-weight="700"
     font-size="275px"
     id="text2"
     x="-3.4155254"
     y="723.46661"
     style="font-size:266.667px">contique</text><text
     xml:space="preserve"
     id="text2329"
     style="font-style:normal;font-weight:normal;font-size:40px;line-height:1.25;font-family:sans-serif;white-space:pre;shape-inside:url(#rect2331);fill:#000000;fill-opacity:1;stroke:none" /><path
     sodipodi:type="spiral"
     style="fill:none;fill-rule:evenodd;stroke:#49565f;stroke-width:13.3333;stroke-miterlimit:4;stroke-dasharray:none;stroke-opacity:1"
     id="path9066"
     sodipodi:cx="406.61261"
     sodipodi:cy="-230.36412"
     sodipodi:expansion="1"
     sodipodi:revolution="2.2895806"
     sodipodi:radius="130.66216"
     sodipodi:argument="-19.414705"
     sodipodi:t0="0"
     d="m 406.61261,-230.36412 c 7.24919,-4.59705 9.77323,7.50375 7.6406,12.04864 -5.7793,12.31637 -22.8467,10.68324 -31.73788,3.23256 -15.90423,-13.32753 -12.6042,-37.95119 1.17548,-51.42712 20.22224,-19.77647 53.27875,-14.63238 71.11635,5.58352 23.77472,26.94462 16.70926,68.68789 -9.99156,90.80559 -33.60026,27.83288 -84.13647,18.81195 -110.49482,-14.3996 -31.9235,-40.22363 -20.92969,-99.6074 18.80764,-130.18406 46.82906,-36.03353 115.09228,-23.0569 149.8733,23.21568 40.15606,53.42352 25.19042,130.58647 -27.62372,169.56254 -8.66232,6.39266 -18.12947,11.68472 -28.10311,15.73623"
     transform="matrix(2.1686773,0,0,2.1686773,-386.71775,750.2199)" /><path
     d="m 375.61157,408.02849 c 0,-32.54753 26.51945,-58.93211 59.2359,-58.93211 32.71645,0 59.2359,26.38458 59.2359,58.93211 0,32.54755 -26.51945,58.93213 -59.2359,58.93213 -32.71645,0 -59.2359,-26.38458 -59.2359,-58.93213 z"
     fill="#4d5a62"
     fill-rule="evenodd"
     id="path11"
     style="fill:#49565f;fill-opacity:1;stroke-width:0.607548" /><path
     d="m 568.63622,245.1754 c 0,-32.71523 26.51945,-59.2359 59.2359,-59.2359 32.71645,0 59.2359,26.52067 59.2359,59.2359 0,32.71524 -26.51945,59.23591 -59.2359,59.23591 -32.71645,0 -59.2359,-26.52067 -59.2359,-59.23591 z"
     fill="#4d5a62"
     fill-rule="evenodd"
     id="path12"
     style="fill:#49565f;fill-opacity:1;stroke-width:0.607548" /><path
     d="m 254.9782,159.79695 c 0,-32.71523 26.51948,-59.23589 59.23591,-59.23589 32.71644,0 59.2359,26.52066 59.2359,59.23589 0,32.71524 -26.51946,59.23591 -59.2359,59.23591 -32.71643,0 -59.23591,-26.52067 -59.23591,-59.23591 z"
     fill="#4d5a62"
     fill-rule="evenodd"
     id="path14"
     style="fill:#49565f;fill-opacity:1;stroke-width:0.607548" /><path
     d="m 589.29402,66.124559 c 0,-32.715235 26.51946,-59.235903 59.23591,-59.235903 32.71644,0 59.2359,26.520668 59.2359,59.235903 0,32.715231 -26.51946,59.235901 -59.2359,59.235901 -32.71645,0 -59.23591,-26.52067 -59.23591,-59.235901 z"
     fill="#4d5a62"
     fill-rule="evenodd"
     id="path15"
     style="fill:#49565f;fill-opacity:1;stroke-width:0.607548" /><path
     d="m 538.13171,513.94006 c 0,-32.71642 26.51945,-59.2359 59.2359,-59.2359 32.71643,0 59.23593,26.51948 59.23593,59.2359 0,32.71645 -26.5195,59.2359 -59.23593,59.2359 -32.71645,0 -59.2359,-26.51945 -59.2359,-59.2359 z"
     fill="#4d5a62"
     fill-rule="evenodd"
     id="path18"
     style="fill:#49565f;fill-opacity:1;stroke-width:0.607548" /><path
     d="m 473.40701,228.94769 c 0,-23.95456 19.41799,-43.37355 43.37355,-43.37355 23.95551,0 43.37355,19.41899 43.37355,43.37355 0,23.95456 -19.41804,43.37355 -43.37355,43.37355 -23.95556,0 -43.37355,-19.41899 -43.37355,-43.37355 z"
     fill="#e6943a"
     fill-rule="evenodd"
     id="path10"
     style="fill:#e59139;fill-opacity:1;stroke-width:0.333642" /><text
     xml:space="preserve"
     id="text16397"
     style="font-style:normal;font-weight:normal;font-size:40px;line-height:1.25;font-family:sans-serif;white-space:pre;shape-inside:url(#rect16399);fill:#000000;fill-opacity:1;stroke:none" /></svg>
